<?xml version="1.0" encoding="UTF-8" standalone="no"?><!DOCTYPE svg PUBLIC "-//W3C//DTD SVG 1.1//EN" "http://www.w3.org/Graphics/SVG/1.1/DTD/svg11.dtd"><svg width="100%" height="100%" viewBox="0 0 1500 1501" version="1.1" xmlns="http://www.w3.org/2000/svg" xmlns:xlink="http://www.w3.org/1999/xlink" xml:space="preserve" xmlns:serif="http://www.serif.com/" style="fill-rule:evenodd;clip-rule:evenodd;stroke-linejoin:round;stroke-miterlimit:2;"><rect id="logo" x="0" y="0.923" width="1500" height="1500" style="fill:none;"/><clipPath id="_clip1"><rect x="0" y="0.923" width="1500" height="1500"/></clipPath><g clip-path="url(#_clip1)"><path d="M1500,187.923c-0,-103.277 -83.723,-187 -187,-187l-1126,-0c-103.277,-0 -187,83.723 -187,187l-0,1126c0,103.277 83.723,187 187,187l1126,-0c103.277,-0 187,-83.723 187,-187l-0,-1126Z" style="fill:#fff;"/><clipPath id="_clip2"><path d="M1500,187.923c-0,-103.277 -83.723,-187 -187,-187l-1126,-0c-103.277,-0 -187,83.723 -187,187l-0,1126c0,103.277 83.723,187 187,187l1126,-0c103.277,-0 187,-83.723 187,-187l-0,-1126Z"/></clipPath><g clip-path="url(#_clip2)"><g><rect x="0" y="0.923" width="500" height="500" style="fill:#ff7f41;"/><rect x="500" y="0.923" width="500" height="500" style="fill:#e03c31;"/><rect x="1000" y="0.923" width="500" height="500" style="fill:#f7ea48;"/><rect x="0" y="500.923" width="500" height="500" style="fill:#2dc84d;"/><rect x="500" y="500.923" width="500" height="500" style="fill:#fff;"/><rect x="0" y="1000.92" width="500" height="500" style="fill:#147bd1;"/><rect x="500" y="1000.92" width="500" height="500" style="fill:#e03c31;"/><rect x="1000" y="1000.92" width="500" height="500" style="fill:#2dc84d;"/><rect x="1000" y="500.923" width="500" height="500" style="fill:#147bd1;"/></g><g><rect x="490" y="0.923" width="20" height="1500" style="fill:#fff;"/><rect x="990" y="0.923" width="20" height="1500" style="fill:#fff;"/><path d="M1500,510.923l0,-20l-1500,-0l0,20l1500,-0Z" style="fill:#fff;"/><path d="M1500,1010.92l0,-20l-1500,-0l0,20l1500,-0Z" style="fill:#fff;"/></g><g><path d="M831.153,582.752c-8.451,11.213 -11.613,25.545 -8.666,39.273c2.947,13.729 11.712,25.5 24.02,32.258c56.781,31.183 120.77,47.75 186.143,47.75c40.15,0 79.939,-6.252 117.962,-18.432c13.394,-4.267 24.27,-14.146 29.8,-27.069c5.529,-12.923 5.166,-27.612 -0.996,-40.246c0.006,-0.003 0.006,-0.003 0.006,-0.003c-10.423,-21.369 -34.957,-31.841 -57.599,-24.585c-28.73,9.279 -58.814,14.039 -89.173,14.039c-49.449,-0 -97.844,-12.622 -140.714,-36.371c-20.533,-11.273 -46.229,-5.756 -60.326,12.951c-0.208,0.103 -0.332,0.269 -0.457,0.435Z" style="fill:#2d2d2d;"/><path d="M674.438,537.801c8.292,-11.413 11.2,-25.873 7.964,-39.604c-3.236,-13.732 -12.295,-25.371 -24.811,-31.88c-55.283,-28.954 -116.995,-44.321 -179.953,-44.321c-53.778,0 -106.754,11.215 -155.617,32.696c-12.919,5.609 -22.752,16.57 -26.933,30.019c-4.18,13.45 -2.292,28.054 5.172,39.998c-0.045,0.028 -0.044,0.028 -0.044,0.029c12.591,20.149 38.051,28.022 59.818,18.495c36.884,-16.401 76.938,-24.941 117.604,-24.941c47.548,0 94.149,11.672 135.812,33.717c21.03,11.016 46.957,4.945 60.911,-14.261c0.076,0.054 0.077,0.054 0.077,0.053Z" style="fill:#2d2d2d;"/><g><circle cx="489.4" cy="934.418" r="117.924" style="fill:#fff;"/><path d="M489.4,736.821c109.057,-0 197.598,88.54 197.598,197.597c-0,109.057 -88.541,197.597 -197.598,197.597c-109.057,0 -197.597,-88.54 -197.597,-197.597c-0,-109.057 88.54,-197.597 197.597,-197.597Zm0,98.798c54.529,0 98.799,44.27 98.799,98.799c-0,54.529 -44.27,98.799 -98.799,98.799c-54.528,-0 -98.799,-44.27 -98.799,-98.799c0,-54.529 44.271,-98.799 98.799,-98.799Z" style="fill:#2d2d2d;"/></g><g><circle cx="1010.6" cy="934.418" r="117.924" style="fill:#fff;"/><path d="M1010.6,736.821c109.057,-0 197.597,88.54 197.597,197.597c0,109.057 -88.54,197.597 -197.597,197.597c-109.057,0 -197.598,-88.54 -197.598,-197.597c0,-109.057 88.541,-197.597 197.598,-197.597Zm-0,98.798c54.528,0 98.799,44.27 98.799,98.799c-0,54.529 -44.271,98.799 -98.799,98.799c-54.529,-0 -98.799,-44.27 -98.799,-98.799c0,-54.529 44.27,-98.799 98.799,-98.799Z" style="fill:#2d2d2d;"/></g></g></g></g></svg>